<?xml version="1.0" encoding="UTF-8" standalone="no"?>
<!-- Created with Inkscape (http://www.inkscape.org/) -->

<svg
   width="210mm"
   height="297mm"
   viewBox="0 0 210 297"
   version="1.1"
   id="svg1"
   xml:space="preserve"
   sodipodi:docname="logo.svg"
   inkscape:version="1.3.2 (091e20ef0f, 2023-11-25, custom)"
   xmlns:inkscape="http://www.inkscape.org/namespaces/inkscape"
   xmlns:sodipodi="http://sodipodi.sourceforge.net/DTD/sodipodi-0.dtd"
   xmlns="http://www.w3.org/2000/svg"
   xmlns:svg="http://www.w3.org/2000/svg"><sodipodi:namedview
     id="namedview1"
     pagecolor="#ffffff"
     bordercolor="#666666"
     borderopacity="1.0"
     inkscape:showpageshadow="2"
     inkscape:pageopacity="0.0"
     inkscape:pagecheckerboard="0"
     inkscape:deskcolor="#d1d1d1"
     inkscape:document-units="mm"
     inkscape:zoom="0.92347471"
     inkscape:cx="188.4188"
     inkscape:cy="371.96471"
     inkscape:window-width="1641"
     inkscape:window-height="896"
     inkscape:window-x="0"
     inkscape:window-y="0"
     inkscape:window-maximized="1"
     inkscape:current-layer="layer1" /><defs
     id="defs1" /><g
     inkscape:label="Layer 1"
     inkscape:groupmode="layer"
     id="layer1"><path
       style="fill:none;stroke:#000000;stroke-width:1.265;stroke-linecap:round;stroke-linejoin:miter;stroke-dasharray:none;stroke-opacity:1"
       d="M 60.028589,89.590019 71.70177,67.38363 l 10.076979,0.04115 21.857861,20.931256"
       id="path1"
       sodipodi:nodetypes="cccc"
       inkscape:export-filename="logo.png"
       inkscape:export-xdpi="250"
       inkscape:export-ydpi="250" /><path
       style="fill:none;stroke:#000000;stroke-width:1.065;stroke-linecap:round;stroke-linejoin:miter;stroke-dasharray:none;stroke-opacity:1"
       d="m 64.671984,74.996267 c 0,0 3.470644,-6.921775 10.612342,-1.201309 8.16219,6.537875 11.406884,1.765559 11.406884,1.765559"
       id="path2"
       sodipodi:nodetypes="csc" /><path
       style="fill:#000000;stroke:none;stroke-width:0.264583px;stroke-linecap:butt;stroke-linejoin:miter;stroke-opacity:1;fill-opacity:1"
       d="m 66.036147,84.792658 h 3.378364 v 15.914652 h 5.285298 v 2.66181 h -8.660725 z"
       id="path3" /><path
       style="fill:#de0322;fill-opacity:1;stroke:none;stroke-width:0.254488px;stroke-linecap:butt;stroke-linejoin:miter;stroke-opacity:1"
       d="m 76.405289,84.660366 h 3.53939 l -0.03999,18.841044 h -3.498232 z"
       id="path4"
       sodipodi:nodetypes="ccccc" /><path
       style="fill:#000000;fill-opacity:1;stroke:none;stroke-width:0.264583px;stroke-linecap:butt;stroke-linejoin:miter;stroke-opacity:1"
       d="m 81.650159,84.528074 0.07317,18.973336 h 1.683377 V 92.975217 l 4.054488,6.251284 4.271886,-6.290733 0.133882,10.565642 h 2.730082 l -0.05288,-18.841044 -6.576683,8.631158 z"
       id="path5"
       sodipodi:nodetypes="ccccccccccc" /><path
       style="fill:#000000;fill-opacity:1;stroke:none;stroke-width:0.264583px;stroke-linecap:butt;stroke-linejoin:miter;stroke-opacity:1"
       d="m 95.991094,84.528074 0.134403,18.973336 h 1.683377 V 92.975217 l 4.054486,6.251284 4.27189,-6.290733 0.13389,10.565642 h 2.73008 l -0.0834,-18.973336 -6.54619,8.76345 z"
       id="path6"
       sodipodi:nodetypes="ccccccccccc" /><path
       style="fill:#000000;fill-opacity:1;stroke:none;stroke-width:0.264583px;stroke-linecap:butt;stroke-linejoin:miter;stroke-opacity:1"
       d="m 109.83725,98.425314 c 0,0 -0.0751,5.032696 4.57504,5.076096 4.05266,0.0378 5.24158,-1.72494 5.31866,-3.06697 0.0771,-1.342027 0.17383,-3.400483 -2.90012,-6.686475 -3.07395,-3.285993 -3.55478,-3.972886 -3.26366,-5.709703 0.29113,-1.736818 2.25096,-1.225492 2.79151,-0.601616 0.56997,0.657838 0.445,1.975962 0.445,1.975962 l 2.97841,-0.01273 c 0,0 -0.24807,-5.23709 -5.45821,-5.163446 -4.39883,0.06218 -4.22124,3.472845 -4.25496,5.332583 -0.0483,2.661293 1.85783,4.458649 2.90733,5.559776 1.04951,1.101127 3.53687,2.701827 3.76959,3.841843 0.23028,1.128036 -0.20852,2.372296 -2.31551,2.067186 -2.10698,-0.30511 -2.1842,-2.665804 -2.1842,-2.665804 z"
       id="path7"
       sodipodi:nodetypes="csssssccssssscc" /><circle
       style="fill:#de0322;fill-opacity:1;stroke:none;stroke-width:1.39385;stroke-linecap:round;stroke-linejoin:round;stroke-dasharray:none;paint-order:stroke fill markers"
       id="path8"
       cx="78.174988"
       cy="80.067917"
       r="2.2313724" /><rect
       style="fill:none;fill-opacity:1;stroke:none;stroke-width:2.12852;stroke-linecap:round;stroke-linejoin:round;stroke-dasharray:none;stroke-opacity:1;paint-order:stroke fill markers"
       id="rect9"
       width="60.386002"
       height="37.064526"
       x="59.396088"
       y="66.749565"
       inkscape:export-filename="../../../../logo.png"
       inkscape:export-xdpi="600"
       inkscape:export-ydpi="600" /><path
       style="fill:none;stroke:#ffffff;stroke-width:1.265;stroke-linecap:round;stroke-linejoin:miter;stroke-dasharray:none;stroke-opacity:1"
       d="m 60.028589,147.79838 11.673181,-22.2064 10.076979,0.0412 21.857861,20.93127"
       id="path9"
       sodipodi:nodetypes="cccc"
       inkscape:export-filename="../../../../logo-darkmode.png"
       inkscape:export-xdpi="250"
       inkscape:export-ydpi="250" /><path
       style="fill:none;stroke:#ffffff;stroke-width:1.065;stroke-linecap:round;stroke-linejoin:miter;stroke-dasharray:none;stroke-opacity:1"
       d="m 64.671984,133.20462 c 0,0 3.470644,-6.92178 10.612342,-1.20131 8.16219,6.53788 11.406884,1.76556 11.406884,1.76556"
       id="path10"
       sodipodi:nodetypes="csc" /><path
       style="fill:#ffffff;fill-opacity:1;stroke:none;stroke-width:0.264583px;stroke-linecap:butt;stroke-linejoin:miter;stroke-opacity:1"
       d="m 66.036147,143.00102 h 3.378364 v 15.91466 h 5.285298 v 2.66181 h -8.660725 z"
       id="path11" /><path
       style="fill:#de0322;fill-opacity:1;stroke:none;stroke-width:0.254488px;stroke-linecap:butt;stroke-linejoin:miter;stroke-opacity:1"
       d="m 76.405289,142.86873 h 3.53939 l -0.03999,18.84105 h -3.498232 z"
       id="path12"
       sodipodi:nodetypes="ccccc" /><path
       style="fill:#ffffff;fill-opacity:1;stroke:none;stroke-width:0.264583px;stroke-linecap:butt;stroke-linejoin:miter;stroke-opacity:1"
       d="m 81.650159,142.73643 0.07317,18.97335 h 1.683377 v -10.5262 l 4.054488,6.25129 4.271886,-6.29074 0.133882,10.56565 h 2.730082 l -0.05288,-18.84105 -6.576683,8.63116 z"
       id="path13"
       sodipodi:nodetypes="ccccccccccc" /><path
       style="fill:#ffffff;fill-opacity:1;stroke:none;stroke-width:0.264583px;stroke-linecap:butt;stroke-linejoin:miter;stroke-opacity:1"
       d="m 95.991094,142.73643 0.134403,18.97335 h 1.683377 v -10.5262 l 4.054486,6.25129 4.27189,-6.29074 0.13389,10.56565 h 2.73008 l -0.0834,-18.97335 -6.54619,8.76346 z"
       id="path14"
       sodipodi:nodetypes="ccccccccccc" /><path
       style="fill:#ffffff;fill-opacity:1;stroke:none;stroke-width:0.264583px;stroke-linecap:butt;stroke-linejoin:miter;stroke-opacity:1"
       d="m 109.83725,156.63368 c 0,0 -0.0751,5.0327 4.57504,5.0761 4.05266,0.0378 5.24158,-1.72494 5.31866,-3.06697 0.0771,-1.34203 0.17383,-3.40049 -2.90012,-6.68648 -3.07395,-3.28599 -3.55478,-3.97289 -3.26366,-5.70971 0.29113,-1.73682 2.25096,-1.22549 2.79151,-0.60161 0.56997,0.65783 0.445,1.97596 0.445,1.97596 l 2.97841,-0.0127 c 0,0 -0.24807,-5.23709 -5.45821,-5.16345 -4.39883,0.0622 -4.22124,3.47285 -4.25496,5.33259 -0.0483,2.66129 1.85783,4.45865 2.90733,5.55978 1.04951,1.10112 3.53687,2.70182 3.76959,3.84184 0.23028,1.12804 -0.20852,2.3723 -2.31551,2.06719 -2.10698,-0.30511 -2.1842,-2.66581 -2.1842,-2.66581 z"
       id="path15"
       sodipodi:nodetypes="csssssccssssscc" /><circle
       style="fill:#de0322;fill-opacity:1;stroke:none;stroke-width:1.39385;stroke-linecap:round;stroke-linejoin:round;stroke-dasharray:none;paint-order:stroke fill markers"
       id="circle15"
       cx="78.174988"
       cy="138.27625"
       r="2.2313724" /><rect
       style="fill:none;fill-opacity:1;stroke:none;stroke-width:2.12852;stroke-linecap:round;stroke-linejoin:round;stroke-dasharray:none;stroke-opacity:1;paint-order:stroke fill markers"
       id="rect15"
       width="60.386002"
       height="37.064526"
       x="59.396088"
       y="124.95786"
       inkscape:export-filename="../../../../logo.png"
       inkscape:export-xdpi="600"
       inkscape:export-ydpi="600" /></g></svg>
